<svg width="17" height="18" viewBox="0 0 17 18" fill="none" xmlns="http://www.w3.org/2000/svg">
<path d="M7.01221 2.66699H3.31959C2.69254 2.66699 2.20483 3.15958 2.20483 3.79292V9.7744C2.20483 10.4077 2.69254 10.9003 3.31959 10.9003H7.01221C7.63926 10.9003 8.12697 10.4077 8.12697 9.7744V3.79292C8.12697 3.15958 7.63926 2.66699 7.01221 2.66699ZM6.66385 9.35218H3.66795V4.14477H6.59418V9.35218H6.66385ZM7.01221 11.604H3.31959C2.69254 11.604 2.20483 12.0966 2.20483 12.73V14.2077C2.20483 14.8411 2.69254 15.3337 3.31959 15.3337H7.01221C7.63926 15.3337 8.12697 14.8411 8.12697 14.2077V12.73C8.12697 12.0966 7.63926 11.604 7.01221 11.604ZM6.66385 13.8559H3.66795V13.0818H6.59418V13.8559H6.66385ZM13.6311 7.1707H9.93844C9.31139 7.1707 8.82369 7.66329 8.82369 8.29662V14.2781C8.82369 14.9114 9.31139 15.404 9.93844 15.404H13.6311C14.2581 15.404 14.7458 14.9114 14.7458 14.2781V8.29662C14.7458 7.66329 14.2581 7.1707 13.6311 7.1707ZM13.2827 13.8559H10.3565V8.64847H13.2827V13.8559ZM13.6311 2.66699H9.93844C9.31139 2.66699 8.82369 3.15958 8.82369 3.79292V5.2707C8.82369 5.90403 9.31139 6.39662 9.93844 6.39662H13.6311C14.2581 6.39662 14.7458 5.90403 14.7458 5.2707V3.79292C14.7458 3.15958 14.2581 2.66699 13.6311 2.66699ZM13.2827 4.91884H10.3565V4.14477H13.2827V4.91884Z" fill="#3B65F5"/>
</svg>
