<svg xmlns="http://www.w3.org/2000/svg" width="64" height="64" enable-background="new 0 0 64 64" viewBox="0 0 64 64"><polygon fill="#CCD1D9" points="52 10.495 52 25.505 50.18 25.505 50 25.505 48 25.505 48 10.495 48 6.495"/><path fill="#E6E9ED" d="M18.18 25.505c4.34.101 7.82 3.641 7.82 8v16c0 4.36-3.48 7.9-7.82 8H18h-3.87c4.36-.069 7.87-3.62 7.87-8v-16c0-4.38-3.51-7.93-7.87-8H16h2H18.18zM48 25.505h2 .18c4.34.101 7.82 3.641 7.82 8v16c0 4.36-3.48 7.9-7.82 8H50h-4c4.42 0 8-3.58 8-8v-16c0-4.42-3.58-8-8-8H48z"/><path fill="#4A89DC" d="M54,33.505v16c0,4.42-3.58,8-8,8H18.18c4.34-0.1,7.82-3.64,7.82-8v-16c0-4.359-3.48-7.899-7.82-8H46
			C50.42,25.505,54,29.085,54,33.505z"/><path fill="#4A89DC" d="M14.13 25.505c4.36.07 7.87 3.62 7.87 8v16c0 4.38-3.51 7.931-7.87 8H14 9c4.42 0 8-3.58 8-8v-16c0-4.42-3.58-8-8-8h3 2H14.13zM55 25.505c4.42 0 8 3.58 8 8v16c0 4.42-3.58 8-8 8h-4.82c4.34-.1 7.82-3.64 7.82-8v-16c0-4.359-3.48-7.899-7.82-8H52 55z"/><polygon fill="#CCD1D9" points="16 10.495 16 25.505 14.13 25.505 14 25.505 12 25.505 12 10.495 16 6.495"/><rect width="32" height="4" x="16" y="6.495" fill="#AAB2BD"/><path fill="#5D9CEC" d="M17,33.505v16c0,4.42-3.58,8-8,8s-8-3.58-8-8v-16c0-4.42,3.58-8,8-8S17,29.085,17,33.505z"/><path fill="#3679CE" d="M49,37.5H30.998c-0.553,0-1-0.447-1-1s0.447-1,1-1H49c0.553,0,1,0.447,1,1S49.553,37.5,49,37.5z"/><path fill="#F5F7FA" d="M46,36.5v3.001c0,0.553,0.447,1,1,1s1-0.447,1-1V36.5H46z"/></svg>