<svg xmlns="http://www.w3.org/2000/svg" width="400" height="400"><path fill="#E3EBF5" d="M198.81 331.84v3.25c0 3.37-1.11 6.47-2.98 8.98l-1.44-1.59c2.73-2.72 4.42-6.48 4.42-10.64z"/><path fill="#2A94F4" d="M341.672 268.804c0 8.284-6.716 15-15 15H73.328c-8.284 0-15-6.716-15-15V122c0-8.284 6.716-15 15-15h253.344c8.284 0 15 6.716 15 15v146.804z"/><path fill="#0E538C" d="M332.521 260.841c0 8.284-6.716 15-15 15H82.479c-8.284 0-15-6.716-15-15V129.963c0-8.284 6.716-15 15-15H317.52c8.284 0 15 6.716 15 15v130.878z"/><circle cx="200" cy="195.402" r="77.246" fill="#2A94F4"/><path fill="#F2F2F2" d="M195.911 240.064c-11.824-.281-28.997-4.223-28.997-13.514 0-3.8 2.958-8.867 9.853-8.867 5.913 0 10.558 3.94 19.144 4.504v-20.974c-13.655-4.363-28.856-9.009-28.856-27.729 0-16.047 11.12-25.619 28.856-26.604v-7.039c0-1.97 1.688-3.659 3.659-3.659s3.661 1.689 3.661 3.659v7.039c9.71.562 24.773 3.237 24.773 12.668 0 4.786-4.081 8.728-9.714 8.728-5.067 0-7.178-2.956-15.06-3.52v19.706c14.637 4.927 28.854 8.728 28.854 26.885 0 16.892-12.246 26.745-28.854 28.435v7.178c0 1.972-1.55 3.66-3.661 3.66-2.11 0-3.659-1.688-3.659-3.66v-6.896zm0-58.274v-16.891c-4.926.703-8.728 2.814-8.728 7.882 0 4.785 3.378 6.615 5.913 7.741l2.815 1.268zm10.133 22.943-2.812-1.126v18.158c5.347-1.126 8.585-4.224 8.585-9.149-.001-5.067-3.239-6.757-5.773-7.883z"/></svg>