<svg width="253" height="36" viewBox="0 0 253 36" fill="none" xmlns="http://www.w3.org/2000/svg">
<g filter="url(#filter0_d_19_173)">
<path d="M73.05 26L69.7204 14.3636H72.4079L74.334 22.4489H74.4306L76.5556 14.3636H78.8568L80.9761 22.4659H81.0784L83.0045 14.3636H85.692L82.3625 26H79.9647L77.7488 18.392H77.6579L75.4477 26H73.05ZM89.969 26.1705C89.0864 26.1705 88.3232 25.983 87.6792 25.608C87.0391 25.2292 86.5447 24.7027 86.1963 24.0284C85.8478 23.3504 85.6735 22.5644 85.6735 21.6705C85.6735 20.7689 85.8478 19.9811 86.1963 19.3068C86.5447 18.6288 87.0391 18.1023 87.6792 17.7273C88.3232 17.3485 89.0864 17.1591 89.969 17.1591C90.8516 17.1591 91.6129 17.3485 92.2531 17.7273C92.897 18.1023 93.3932 18.6288 93.7417 19.3068C94.0902 19.9811 94.2644 20.7689 94.2644 21.6705C94.2644 22.5644 94.0902 23.3504 93.7417 24.0284C93.3932 24.7027 92.897 25.2292 92.2531 25.608C91.6129 25.983 90.8516 26.1705 89.969 26.1705ZM89.9804 24.2955C90.3819 24.2955 90.7171 24.1818 90.986 23.9545C91.255 23.7235 91.4576 23.4091 91.594 23.0114C91.7341 22.6136 91.8042 22.161 91.8042 21.6534C91.8042 21.1458 91.7341 20.6932 91.594 20.2955C91.4576 19.8977 91.255 19.5833 90.986 19.3523C90.7171 19.1212 90.3819 19.0057 89.9804 19.0057C89.575 19.0057 89.2341 19.1212 88.9576 19.3523C88.6849 19.5833 88.4785 19.8977 88.3383 20.2955C88.2019 20.6932 88.1338 21.1458 88.1338 21.6534C88.1338 22.161 88.2019 22.6136 88.3383 23.0114C88.4785 23.4091 88.6849 23.7235 88.9576 23.9545C89.2341 24.1818 89.575 24.2955 89.9804 24.2955ZM95.8383 26V17.2727H98.1849V18.7955H98.2758C98.4349 18.2538 98.7019 17.8447 99.0769 17.5682C99.4519 17.2879 99.8838 17.1477 100.372 17.1477C100.494 17.1477 100.624 17.1553 100.764 17.1705C100.905 17.1856 101.028 17.2064 101.134 17.233V19.3807C101.02 19.3466 100.863 19.3163 100.662 19.2898C100.461 19.2633 100.278 19.25 100.111 19.25C99.755 19.25 99.4368 19.3277 99.1565 19.483C98.88 19.6345 98.6603 19.8466 98.4974 20.1193C98.3383 20.392 98.2588 20.7064 98.2588 21.0625V26H95.8383ZM104.578 23.4886L104.584 20.5852H104.936L107.732 17.2727H110.51L106.755 21.6591H106.181L104.578 23.4886ZM102.385 26V14.3636H104.806V26H102.385ZM107.84 26L105.272 22.1989L106.885 20.4886L110.675 26H107.84ZM115.281 26.1705C114.399 26.1705 113.636 25.983 112.992 25.608C112.352 25.2292 111.857 24.7027 111.509 24.0284C111.16 23.3504 110.986 22.5644 110.986 21.6705C110.986 20.7689 111.16 19.9811 111.509 19.3068C111.857 18.6288 112.352 18.1023 112.992 17.7273C113.636 17.3485 114.399 17.1591 115.281 17.1591C116.164 17.1591 116.925 17.3485 117.566 17.7273C118.21 18.1023 118.706 18.6288 119.054 19.3068C119.403 19.9811 119.577 20.7689 119.577 21.6705C119.577 22.5644 119.403 23.3504 119.054 24.0284C118.706 24.7027 118.21 25.2292 117.566 25.608C116.925 25.983 116.164 26.1705 115.281 26.1705ZM115.293 24.2955C115.694 24.2955 116.03 24.1818 116.299 23.9545C116.567 23.7235 116.77 23.4091 116.906 23.0114C117.047 22.6136 117.117 22.161 117.117 21.6534C117.117 21.1458 117.047 20.6932 116.906 20.2955C116.77 19.8977 116.567 19.5833 116.299 19.3523C116.03 19.1212 115.694 19.0057 115.293 19.0057C114.888 19.0057 114.547 19.1212 114.27 19.3523C113.997 19.5833 113.791 19.8977 113.651 20.2955C113.514 20.6932 113.446 21.1458 113.446 21.6534C113.446 22.161 113.514 22.6136 113.651 23.0114C113.791 23.4091 113.997 23.7235 114.27 23.9545C114.547 24.1818 114.888 24.2955 115.293 24.2955ZM126.747 22.2841V17.2727H129.168V26H126.844V24.4148H126.753C126.556 24.9261 126.228 25.3371 125.77 25.6477C125.316 25.9583 124.761 26.1136 124.105 26.1136C123.522 26.1136 123.009 25.9811 122.566 25.7159C122.122 25.4508 121.776 25.0739 121.526 24.5852C121.28 24.0966 121.155 23.5114 121.151 22.8295V17.2727H123.571V22.3977C123.575 22.9129 123.713 23.3201 123.986 23.6193C124.259 23.9186 124.624 24.0682 125.083 24.0682C125.374 24.0682 125.647 24.0019 125.901 23.8693C126.155 23.733 126.359 23.5322 126.514 23.267C126.674 23.0019 126.751 22.6742 126.747 22.2841ZM135.746 17.2727V19.0909H130.49V17.2727H135.746ZM131.683 15.1818H134.104V23.3182C134.104 23.5417 134.138 23.7159 134.206 23.8409C134.274 23.9621 134.369 24.0473 134.49 24.0966C134.615 24.1458 134.759 24.1705 134.922 24.1705C135.036 24.1705 135.149 24.161 135.263 24.142C135.377 24.1193 135.464 24.1023 135.524 24.0909L135.905 25.892C135.784 25.9299 135.613 25.9735 135.394 26.0227C135.174 26.0758 134.907 26.108 134.593 26.1193C134.009 26.142 133.498 26.0644 133.058 25.8864C132.623 25.7083 132.284 25.4318 132.041 25.0568C131.799 24.6818 131.68 24.2083 131.683 23.6364V15.1818ZM141.071 26V14.3636H145.662C146.545 14.3636 147.297 14.5322 147.918 14.8693C148.539 15.2027 149.013 15.6667 149.338 16.2614C149.668 16.8523 149.833 17.5341 149.833 18.3068C149.833 19.0795 149.666 19.7614 149.333 20.3523C148.999 20.9432 148.516 21.4034 147.884 21.733C147.255 22.0625 146.494 22.2273 145.6 22.2273H142.674V20.2557H145.202C145.675 20.2557 146.066 20.1742 146.372 20.0114C146.683 19.8447 146.914 19.6155 147.066 19.3239C147.221 19.0284 147.299 18.6894 147.299 18.3068C147.299 17.9205 147.221 17.5833 147.066 17.2955C146.914 17.0038 146.683 16.7784 146.372 16.6193C146.062 16.4564 145.668 16.375 145.191 16.375H143.531V26H141.071ZM153.806 14.3636V26H151.385V14.3636H153.806ZM158.233 26.1648C157.676 26.1648 157.18 26.0682 156.745 25.875C156.309 25.678 155.964 25.3883 155.71 25.0057C155.46 24.6193 155.335 24.1383 155.335 23.5625C155.335 23.0777 155.424 22.6705 155.603 22.3409C155.781 22.0114 156.023 21.7462 156.33 21.5455C156.637 21.3447 156.985 21.1932 157.375 21.0909C157.769 20.9886 158.182 20.9167 158.614 20.875C159.121 20.822 159.531 20.7727 159.841 20.7273C160.152 20.678 160.377 20.6061 160.517 20.5114C160.657 20.4167 160.728 20.2765 160.728 20.0909V20.0568C160.728 19.697 160.614 19.4186 160.387 19.2216C160.163 19.0246 159.845 18.9261 159.432 18.9261C158.996 18.9261 158.65 19.0227 158.392 19.2159C158.135 19.4053 157.964 19.6439 157.881 19.9318L155.642 19.75C155.756 19.2197 155.979 18.7614 156.313 18.375C156.646 17.9848 157.076 17.6856 157.603 17.4773C158.133 17.2652 158.746 17.1591 159.443 17.1591C159.928 17.1591 160.392 17.2159 160.835 17.3295C161.282 17.4432 161.678 17.6193 162.023 17.858C162.371 18.0966 162.646 18.4034 162.847 18.7784C163.048 19.1496 163.148 19.5947 163.148 20.1136V26H160.853V24.7898H160.784C160.644 25.0625 160.457 25.303 160.222 25.5114C159.987 25.7159 159.705 25.8769 159.375 25.9943C159.046 26.108 158.665 26.1648 158.233 26.1648ZM158.926 24.4943C159.282 24.4943 159.597 24.4242 159.87 24.2841C160.142 24.1402 160.356 23.947 160.512 23.7045C160.667 23.4621 160.745 23.1875 160.745 22.8807V21.9545C160.669 22.0038 160.565 22.0492 160.432 22.0909C160.303 22.1288 160.157 22.1648 159.995 22.1989C159.832 22.2292 159.669 22.2576 159.506 22.2841C159.343 22.3068 159.195 22.3277 159.063 22.3466C158.779 22.3883 158.531 22.4545 158.318 22.5455C158.106 22.6364 157.942 22.7595 157.824 22.9148C157.707 23.0663 157.648 23.2557 157.648 23.483C157.648 23.8125 157.767 24.0644 158.006 24.2386C158.248 24.4091 158.555 24.4943 158.926 24.4943ZM167.446 20.9545V26H165.026V17.2727H167.333V18.8125H167.435C167.628 18.3049 167.952 17.9034 168.406 17.608C168.861 17.3087 169.412 17.1591 170.06 17.1591C170.666 17.1591 171.194 17.2917 171.645 17.5568C172.096 17.822 172.446 18.2008 172.696 18.6932C172.946 19.1818 173.071 19.7652 173.071 20.4432V26H170.651V20.875C170.655 20.3409 170.518 19.9242 170.242 19.625C169.965 19.322 169.585 19.1705 169.1 19.1705C168.774 19.1705 168.486 19.2405 168.236 19.3807C167.99 19.5208 167.797 19.7254 167.656 19.9943C167.52 20.2595 167.45 20.5795 167.446 20.9545ZM182.24 19.7614L180.024 19.8977C179.987 19.7083 179.905 19.5379 179.78 19.3864C179.655 19.2311 179.49 19.108 179.286 19.017C179.085 18.9223 178.844 18.875 178.564 18.875C178.189 18.875 177.873 18.9545 177.615 19.1136C177.358 19.2689 177.229 19.4773 177.229 19.7386C177.229 19.947 177.312 20.1231 177.479 20.267C177.646 20.411 177.932 20.5265 178.337 20.6136L179.916 20.9318C180.765 21.1061 181.398 21.3864 181.814 21.7727C182.231 22.1591 182.439 22.6667 182.439 23.2955C182.439 23.8674 182.271 24.3693 181.933 24.8011C181.6 25.233 181.142 25.5701 180.558 25.8125C179.979 26.0511 179.31 26.1705 178.553 26.1705C177.398 26.1705 176.477 25.9299 175.791 25.4489C175.11 24.964 174.71 24.3049 174.593 23.4716L176.973 23.3466C177.045 23.6989 177.219 23.9678 177.496 24.1534C177.773 24.3352 178.127 24.4261 178.558 24.4261C178.983 24.4261 179.324 24.3447 179.581 24.1818C179.843 24.0152 179.975 23.8011 179.979 23.5398C179.975 23.3201 179.882 23.1402 179.701 23C179.519 22.8561 179.238 22.7462 178.86 22.6705L177.348 22.3693C176.496 22.1989 175.862 21.9034 175.445 21.483C175.032 21.0625 174.826 20.5265 174.826 19.875C174.826 19.3144 174.977 18.8314 175.28 18.4261C175.587 18.0208 176.017 17.7083 176.57 17.4886C177.127 17.2689 177.778 17.1591 178.524 17.1591C179.627 17.1591 180.494 17.392 181.127 17.858C181.763 18.3239 182.134 18.9583 182.24 19.7614Z" fill="white"/>
</g>
<path d="M33 32.9371H53.0001C53.3285 32.9378 53.6539 32.8697 53.9575 32.7366C54.2611 32.6034 54.537 32.4079 54.7693 32.1611C55.0016 31.9144 55.1857 31.6214 55.3111 31.2989C55.4366 30.9763 55.5008 30.6306 55.5002 30.2817V6.37515C55.501 6.02608 55.4368 5.6803 55.3114 5.35765C55.186 5.03501 55.0019 4.74185 54.7696 4.49502C54.5373 4.2482 54.2614 4.05256 53.9577 3.91934C53.6541 3.78613 53.3286 3.71796 53.0001 3.71876H33C32.6714 3.71796 32.346 3.78613 32.0423 3.91934C31.7386 4.05256 31.4627 4.2482 31.2304 4.49502C30.9981 4.74185 30.814 5.03501 30.6886 5.35765C30.5632 5.6803 30.4991 6.02608 30.4998 6.37515V30.2817C30.4992 30.6306 30.5634 30.9763 30.6889 31.2989C30.8143 31.6214 30.9985 31.9144 31.2308 32.1611C31.4631 32.4079 31.7389 32.6034 32.0425 32.7366C32.3461 32.8697 32.6715 32.9378 33 32.9371Z" fill="#00A1FF"/>
<path d="M33.1246 3.71875V27.7708C33.1246 28.9334 34.0062 29.869 35.0994 29.869H50.8996C51.9937 29.869 52.8744 28.9334 52.8744 27.7708V3.71875H33.1246Z" fill="#A8D0FF"/>
<path d="M40.8745 1.0625C40.7102 1.06211 40.5475 1.09619 40.3957 1.1628C40.2438 1.2294 40.1059 1.32722 39.9897 1.45064C39.8736 1.57405 39.7815 1.72063 39.7188 1.88195C39.6561 2.04327 39.6241 2.21617 39.6244 2.3907H38.5936C38.4293 2.3903 38.2666 2.42439 38.1148 2.49099C37.9629 2.5576 37.825 2.65542 37.7088 2.77883C37.5927 2.90225 37.5006 3.04882 37.4379 3.21015C37.3752 3.37147 37.3431 3.54436 37.3435 3.71889V4.51601C37.3435 5.25189 37.901 5.84421 38.5936 5.84421H47.4055C47.5697 5.84461 47.7324 5.81052 47.8843 5.74391C48.0361 5.67731 48.1741 5.57949 48.2902 5.45607C48.4064 5.33266 48.4984 5.18608 48.5611 5.02476C48.6238 4.86344 48.6559 4.69055 48.6555 4.51601V3.71889C48.6559 3.54436 48.6238 3.37147 48.5611 3.21015C48.4984 3.04882 48.4064 2.90225 48.2902 2.77883C48.1741 2.65542 48.0361 2.5576 47.8843 2.49099C47.7324 2.42439 47.5697 2.3903 47.4055 2.3907H46.3746C46.375 2.21617 46.3429 2.04327 46.2802 1.88195C46.2175 1.72063 46.1255 1.57405 46.0093 1.45064C45.8931 1.32722 45.7552 1.2294 45.6034 1.1628C45.4515 1.09619 45.2888 1.06211 45.1245 1.0625H40.8745Z" fill="#0066FF"/>
<path d="M36.8654 25.4694C37.0324 25.4742 37.1986 25.4435 37.3543 25.379C37.5099 25.3145 37.6518 25.2174 37.7715 25.0937C37.8912 24.9699 37.9864 24.8219 38.0514 24.6584C38.1164 24.4949 38.1499 24.3192 38.1499 24.1417C38.1499 23.9642 38.1164 23.7885 38.0514 23.625C37.9864 23.4615 37.8912 23.3134 37.7715 23.1897C37.6518 23.0659 37.5099 22.9689 37.3543 22.9044C37.1986 22.8398 37.0324 22.8091 36.8654 22.814H36.5309C36.2055 22.8235 35.8964 22.9675 35.6693 23.2155C35.4423 23.4634 35.3152 23.7957 35.3152 24.1417C35.3152 24.4876 35.4423 24.8199 35.6693 25.0678C35.8964 25.3158 36.2055 25.4599 36.5309 25.4694H36.8654ZM49.4672 25.4694C49.6342 25.4742 49.8004 25.4435 49.956 25.379C50.1117 25.3145 50.2535 25.2174 50.3733 25.0937C50.493 24.9699 50.5882 24.8219 50.6532 24.6584C50.7181 24.4949 50.7516 24.3192 50.7516 24.1417C50.7516 23.9642 50.7181 23.7885 50.6532 23.625C50.5882 23.4615 50.493 23.3134 50.3733 23.1897C50.2535 23.0659 50.1117 22.9689 49.956 22.9044C49.8004 22.8398 49.6342 22.8091 49.4672 22.814H40.7271C40.4017 22.8235 40.0925 22.9675 39.8655 23.2155C39.6385 23.4634 39.5114 23.7957 39.5114 24.1417C39.5114 24.4876 39.6385 24.8199 39.8655 25.0678C40.0925 25.3158 40.4017 25.4599 40.7271 25.4694H49.4672Z" fill="white"/>
<g clip-path="url(#clip0_19_173)">
<path d="M47.1875 11.2437V12.9453C47.1872 13.216 47.0686 13.4755 46.8577 13.667C46.6467 13.8584 46.3608 13.966 46.0625 13.9663H45.5C45.4573 13.9662 45.416 13.9528 45.3828 13.9284C45.3527 13.9064 45.3309 13.8764 45.3203 13.8426C45.3098 13.8088 45.311 13.7728 45.3238 13.7397C45.3367 13.7066 45.3605 13.6778 45.392 13.6575C45.4236 13.6371 45.4613 13.6261 45.5 13.626H46.0625C46.2614 13.626 46.4522 13.5543 46.5928 13.4266C46.7335 13.299 46.8125 13.1258 46.8125 12.9453V11.2437C46.8125 11.0631 46.7335 10.89 46.5928 10.7624C46.4522 10.6347 46.2614 10.563 46.0625 10.563H40.4375C40.2386 10.563 40.0478 10.6347 39.9072 10.7624C39.7665 10.89 39.6875 11.0631 39.6875 11.2437V12.9453C39.6875 13.1258 39.7665 13.299 39.9072 13.4266C40.0478 13.5543 40.2386 13.626 40.4375 13.626H41C41.0386 13.626 41.0763 13.6368 41.1078 13.657C41.1394 13.6771 41.1634 13.7056 41.1764 13.7386C41.1895 13.7716 41.191 13.8074 41.1808 13.8412C41.1705 13.875 41.1491 13.9051 41.1193 13.9274L41.117 13.9291L41.1125 13.9321C41.1083 13.9348 41.1041 13.9376 41.0996 13.9401L41.0893 13.9457L41.0858 13.9474C41.077 13.9516 41.0678 13.9551 41.0584 13.9578C41.0442 13.9621 41.0296 13.9647 41.0148 13.9657C41.0099 13.9657 41.005 13.9657 41 13.9657H40.4375C40.1392 13.9654 39.8533 13.8577 39.6423 13.6663C39.4314 13.4749 39.3128 13.2154 39.3125 12.9447V11.2437C39.3128 10.973 39.4314 10.7134 39.6423 10.522C39.8533 10.3306 40.1392 10.2229 40.4375 10.2227H46.0625C46.3608 10.2229 46.6467 10.3306 46.8577 10.522C47.0686 10.7134 47.1872 10.973 47.1875 11.2437Z" fill="#0D77BD"/>
<path d="M47.9375 10.9884V13.2006C47.9375 13.5842 47.7696 13.9521 47.4707 14.2233C47.1718 14.4946 46.7664 14.647 46.3438 14.647H46.25C46.2208 14.647 46.1921 14.6408 46.166 14.629C46.1399 14.6171 46.1172 14.5999 46.0998 14.5787L46.0981 14.5768C46.0967 14.5749 46.0951 14.5732 46.0939 14.5712C46.0751 14.5456 46.0642 14.5158 46.0626 14.485C46.061 14.4543 46.0686 14.4237 46.0846 14.3965C46.1006 14.3693 46.1245 14.3466 46.1536 14.3308C46.1827 14.315 46.216 14.3066 46.25 14.3066H46.3438C46.6669 14.3063 46.9766 14.1897 47.2051 13.9823C47.4336 13.7749 47.5621 13.4938 47.5625 13.2006V10.9884C47.5621 10.6952 47.4336 10.414 47.2051 10.2067C46.9766 9.9993 46.6669 9.88266 46.3438 9.88232H40.1562C39.8331 9.88266 39.5234 9.9993 39.2949 10.2067C39.0664 10.414 38.9379 10.6952 38.9375 10.9884V13.2006C38.9379 13.4938 39.0664 13.7749 39.2949 13.9823C39.5234 14.1897 39.8331 14.3063 40.1562 14.3066H40.261H40.2676L40.2793 14.3079C40.2837 14.3085 40.2881 14.3093 40.2924 14.3103H40.2966C40.3005 14.3111 40.3044 14.3122 40.3081 14.3134C40.3162 14.3158 40.324 14.3188 40.3316 14.3224C40.3339 14.3232 40.3362 14.3243 40.3384 14.3256C40.3465 14.3295 40.3544 14.334 40.3618 14.339C40.3678 14.3432 40.3736 14.3476 40.3791 14.3524L40.3871 14.3596C40.4117 14.3837 40.428 14.4138 40.434 14.4462C40.4347 14.449 40.4352 14.452 40.4354 14.4549C40.4364 14.465 40.4364 14.4752 40.4354 14.4853C40.4354 14.4872 40.4354 14.4889 40.4354 14.4908C40.4353 14.4914 40.4353 14.492 40.4354 14.4925L40.434 14.5017C40.4333 14.5061 40.4324 14.5105 40.4312 14.5149C40.43 14.5193 40.4286 14.5236 40.427 14.5281C40.4253 14.5325 40.4237 14.5366 40.4218 14.5408C40.4199 14.5449 40.4178 14.5487 40.4155 14.5527C40.4096 14.5634 40.4023 14.5735 40.3939 14.5827C40.3766 14.6024 40.3548 14.6184 40.3299 14.6295C40.305 14.6406 40.2777 14.6466 40.25 14.647H40.1562C39.7336 14.647 39.3282 14.4946 39.0293 14.2233C38.7304 13.9521 38.5625 13.5842 38.5625 13.2006V10.9884C38.5629 10.6049 38.731 10.2372 39.0298 9.96607C39.3286 9.6949 39.7337 9.54239 40.1562 9.54199H46.3438C46.7663 9.54239 47.1714 9.6949 47.4702 9.96607C47.769 10.2372 47.9371 10.6049 47.9375 10.9884ZM44.9375 17.8801C44.9375 17.9253 44.9177 17.9685 44.8826 18.0005C44.8474 18.0324 44.7997 18.0503 44.75 18.0503H39.6282C39.5915 18.0503 39.5557 18.0405 39.5251 18.0222C39.4945 18.0039 39.4704 17.9779 39.4559 17.9473C39.4534 17.9407 39.4508 17.9344 39.4484 17.9278C39.4405 17.9024 39.4391 17.8758 39.4444 17.8499C39.4497 17.824 39.4615 17.7996 39.479 17.7785C39.4965 17.7575 39.5191 17.7404 39.545 17.7287C39.571 17.7169 39.5996 17.7108 39.6287 17.7108H44.75C44.7996 17.7108 44.8471 17.7286 44.8823 17.7604C44.9174 17.7921 44.9373 17.8351 44.9375 17.8801ZM47.0593 17.8801C47.0593 17.896 47.0568 17.9117 47.052 17.9269C47.0497 17.9335 47.0471 17.9399 47.0445 17.9465C47.0301 17.9771 47.006 18.0031 46.9754 18.0214C46.9448 18.0397 46.9089 18.0494 46.8723 18.0494H45.5C45.4503 18.0494 45.4026 18.0315 45.3674 17.9996C45.3323 17.9677 45.3125 17.9244 45.3125 17.8793C45.3125 17.8341 45.3323 17.7909 45.3674 17.759C45.4026 17.727 45.4503 17.7091 45.5 17.7091H46.8718C46.8965 17.7091 46.921 17.7135 46.9438 17.7221C46.9666 17.7307 46.9873 17.7434 47.0047 17.7593C47.0221 17.7751 47.0359 17.794 47.0453 17.8147C47.0547 17.8355 47.0594 17.8577 47.0593 17.8801Z" fill="#0D77BD"/>
<path d="M47.1875 16.5184V17.1991C47.1878 17.4468 47.142 17.6927 47.052 17.9265C47.0497 17.9331 47.0471 17.9395 47.0445 17.9461C46.8745 18.3748 46.563 18.7455 46.1524 19.0077C45.7417 19.2699 45.2521 19.4108 44.75 19.4112H41.75C41.2482 19.4108 40.7587 19.2699 40.3482 19.0079C39.9377 18.7459 39.6261 18.3754 39.456 17.947C39.4534 17.9404 39.4508 17.934 39.4485 17.9274C39.3582 17.6933 39.3122 17.4471 39.3125 17.1991V16.5184C39.3103 15.8503 39.5164 15.1952 39.9071 14.6289C39.9668 14.5422 40.031 14.4571 40.0998 14.3737C40.1173 14.3526 40.1401 14.3356 40.1661 14.3239C40.1922 14.3122 40.2209 14.3062 40.25 14.3063H40.2613H40.2678L40.2795 14.3075C40.284 14.3081 40.2883 14.3089 40.2927 14.3099H40.2969C40.3008 14.3107 40.3046 14.3118 40.3084 14.3131C40.3164 14.3154 40.3243 14.3184 40.3318 14.322C40.3342 14.3228 40.3365 14.3239 40.3386 14.3252C40.3468 14.3291 40.3546 14.3336 40.362 14.3386C40.3681 14.3428 40.3739 14.3472 40.3794 14.352L40.3874 14.3592C40.4119 14.3833 40.4282 14.4134 40.4342 14.4458C40.4349 14.4487 40.4354 14.4516 40.4356 14.4545C40.4367 14.4646 40.4367 14.4748 40.4356 14.4849C40.4356 14.4868 40.4356 14.4885 40.4356 14.4905C40.4355 14.491 40.4355 14.4916 40.4356 14.4922L40.4342 14.5013C40.4335 14.5057 40.4326 14.5101 40.4314 14.5145C40.4303 14.519 40.4288 14.5232 40.4272 14.5277C40.4256 14.5322 40.4239 14.5362 40.422 14.5404C40.4202 14.5445 40.4181 14.5483 40.4157 14.5524C40.4109 14.5607 40.4053 14.5687 40.3991 14.5762L40.3942 14.5824C39.9327 15.1407 39.6845 15.8205 39.6875 16.5184V17.1991C39.6875 17.6955 39.9048 18.1716 40.2916 18.5227C40.6784 18.8737 41.203 19.0709 41.75 19.0709H44.75C45.0209 19.0711 45.2892 19.0228 45.5396 18.9288C45.7899 18.8348 46.0173 18.697 46.2089 18.5231C46.4005 18.3492 46.5524 18.1428 46.656 17.9156C46.7595 17.6884 46.8127 17.4449 46.8125 17.1991V16.5184C46.8148 15.8185 46.5645 15.1371 46.1 14.5783L46.0984 14.5764C46.097 14.5745 46.0953 14.5728 46.0942 14.5709C46.065 14.5342 46.0532 14.4885 46.0611 14.4439C46.0691 14.3993 46.0963 14.3594 46.1367 14.333C46.1771 14.3065 46.2274 14.2957 46.2766 14.303C46.3257 14.3102 46.3697 14.3349 46.3988 14.3716C46.4682 14.4552 46.5331 14.541 46.5936 14.6289C46.9841 15.1953 47.19 15.8503 47.1875 16.5184Z" fill="#0D77BD"/>
<path d="M46.3438 9.88184H40.1562C39.8331 9.88217 39.5234 9.99882 39.2949 10.2062C39.0664 10.4135 38.9379 10.6947 38.9375 10.9879V13.2001C38.9379 13.4933 39.0664 13.7745 39.2949 13.9818C39.5234 14.1892 39.8331 14.3058 40.1562 14.3062H40.261H40.2676L40.2793 14.3074L40.2924 14.3098H40.2966C40.3006 14.3108 40.3044 14.3117 40.3081 14.313C40.3162 14.3153 40.324 14.3183 40.3316 14.3219C40.3339 14.3228 40.3362 14.3239 40.3384 14.3251C40.3465 14.329 40.3544 14.3335 40.3618 14.3385C40.3678 14.3427 40.3736 14.3471 40.3791 14.3519L40.3871 14.3591C40.4117 14.3832 40.428 14.4133 40.434 14.4457C40.4347 14.4486 40.4352 14.4515 40.4354 14.4544C40.4364 14.4645 40.4364 14.4747 40.4354 14.4848C40.4354 14.4865 40.4354 14.4884 40.4354 14.4904C40.4353 14.4909 40.4353 14.4915 40.4354 14.4921C40.4354 14.495 40.4354 14.4982 40.434 14.5012C40.4333 14.5056 40.4324 14.51 40.4312 14.5144C40.43 14.5189 40.4286 14.5233 40.427 14.5276C40.4255 14.5319 40.4238 14.5362 40.4218 14.5403C40.4199 14.5444 40.4178 14.5484 40.4155 14.5523C40.4096 14.563 40.4023 14.573 40.3939 14.5822C39.9325 15.1406 39.6845 15.8204 39.6875 16.5183V17.199C39.6874 17.3716 39.7136 17.5434 39.7653 17.7095H44.75C44.7997 17.7095 44.8474 17.7274 44.8826 17.7593C44.9177 17.7912 44.9375 17.8345 44.9375 17.8796C44.9375 17.9248 44.9177 17.9681 44.8826 18C44.8474 18.0319 44.7997 18.0498 44.75 18.0498H39.9132C40.0862 18.3569 40.3492 18.6148 40.6733 18.7949C40.9974 18.9751 41.37 19.0705 41.75 19.0708H44.75C45.13 19.0705 45.5026 18.9751 45.8267 18.7949C46.1508 18.6148 46.4138 18.3569 46.5868 18.0498H45.5C45.4503 18.0498 45.4026 18.0319 45.3674 18C45.3323 17.9681 45.3125 17.9248 45.3125 17.8796C45.3125 17.8345 45.3323 17.7912 45.3674 17.7593C45.4026 17.7274 45.4503 17.7095 45.5 17.7095H46.7347C46.7864 17.5434 46.8126 17.3716 46.8125 17.199V16.5183C46.8148 15.8184 46.5645 15.137 46.1 14.5782L46.0984 14.5763C46.097 14.5744 46.0953 14.5727 46.0941 14.5708C46.0731 14.5432 46.0615 14.5106 46.0608 14.4771C46.0601 14.4436 46.0703 14.4107 46.0902 14.3824C46.11 14.3541 46.1386 14.3318 46.1724 14.3183C46.2062 14.3047 46.2436 14.3005 46.28 14.3062H46.3438C46.6669 14.3058 46.9766 14.1892 47.2051 13.9818C47.4336 13.7745 47.5621 13.4933 47.5625 13.2001V10.9879C47.5621 10.6947 47.4336 10.4135 47.2051 10.2062C46.9766 9.99882 46.6669 9.88217 46.3438 9.88184ZM47.1875 12.9448C47.1872 13.2155 47.0686 13.4751 46.8577 13.6665C46.6467 13.8579 46.3608 13.9655 46.0625 13.9658H45.5C45.4573 13.9657 45.416 13.9523 45.3828 13.928C44.7673 13.5113 44.0199 13.2862 43.252 13.2862C42.4841 13.2862 41.7367 13.5113 41.1212 13.928L41.1188 13.9297C41.1134 13.9338 41.1076 13.9375 41.1015 13.9407C41.0982 13.9428 41.0947 13.9446 41.0912 13.9463L41.0877 13.948C41.0789 13.9522 41.0697 13.9557 41.0602 13.9584C41.0461 13.9626 41.0315 13.9653 41.0166 13.9662C41.0118 13.9662 41.0069 13.9662 41.0019 13.9662H40.4375C40.1392 13.966 39.8533 13.8583 39.6423 13.6669C39.4314 13.4755 39.3128 13.2159 39.3125 12.9452V11.2432C39.3128 10.9725 39.4314 10.7129 39.6423 10.5215C39.8533 10.3301 40.1392 10.2224 40.4375 10.2222H46.0625C46.3608 10.2224 46.6467 10.3301 46.8577 10.5215C47.0686 10.7129 47.1872 10.9725 47.1875 11.2432V12.9448Z" fill="#94D4F0"/>
<path d="M45.6439 13.893C45.6142 13.9289 45.5702 13.9526 45.5213 13.9592C45.4724 13.9657 45.4226 13.9545 45.3828 13.9279C44.7673 13.5112 44.0199 13.2861 43.252 13.2861C42.4841 13.2861 41.7367 13.5112 41.1212 13.9279L41.1188 13.9296L41.1144 13.9326C41.1102 13.9353 41.1059 13.9381 41.1015 13.9406L41.0912 13.9462L41.0877 13.9479C41.0788 13.9518 41.0696 13.9553 41.0602 13.9583C41.0461 13.9624 41.0314 13.965 41.0166 13.9662H41.0019C40.9626 13.9661 40.9242 13.9549 40.8924 13.9341C40.8605 13.9132 40.8366 13.8838 40.8241 13.8499C40.8117 13.8161 40.8112 13.7796 40.8229 13.7455C40.8346 13.7114 40.8577 13.6815 40.8891 13.6601C40.906 13.6486 40.9231 13.6371 40.9402 13.626C41.6124 13.1836 42.4216 12.9453 43.252 12.9453C44.0824 12.9453 44.8915 13.1836 45.5638 13.626C45.5785 13.6356 45.5933 13.6454 45.6078 13.6554C45.6472 13.6827 45.6731 13.7229 45.6798 13.7674C45.6866 13.812 45.6737 13.8571 45.6439 13.893Z" fill="#0D77BD"/>
</g>
<defs>
<filter id="filter0_d_19_173" x="65.7204" y="14.3633" width="120.719" height="19.8076" filterUnits="userSpaceOnUse" color-interpolation-filters="sRGB">
<feFlood flood-opacity="0" result="BackgroundImageFix"/>
<feColorMatrix in="SourceAlpha" type="matrix" values="0 0 0 0 0 0 0 0 0 0 0 0 0 0 0 0 0 0 127 0" result="hardAlpha"/>
<feOffset dy="4"/>
<feGaussianBlur stdDeviation="2"/>
<feComposite in2="hardAlpha" operator="out"/>
<feColorMatrix type="matrix" values="0 0 0 0 0 0 0 0 0 0 0 0 0 0 0 0 0 0 0.25 0"/>
<feBlend mode="normal" in2="BackgroundImageFix" result="effect1_dropShadow_19_173"/>
<feBlend mode="normal" in="SourceGraphic" in2="effect1_dropShadow_19_173" result="shape"/>
</filter>
<clipPath id="clip0_19_173">
<rect width="12" height="10.8906" fill="white" transform="translate(37.25 9.03125)"/>
</clipPath>
</defs>
</svg>
