<svg width="32" height="34" viewBox="0 0 32 34" fill="none" xmlns="http://www.w3.org/2000/svg">
<path d="M5.99996 32.9371H26.0001C26.3285 32.9378 26.6539 32.8697 26.9575 32.7366C27.2611 32.6034 27.537 32.4079 27.7693 32.1611C28.0016 31.9144 28.1857 31.6214 28.3111 31.2989C28.4366 30.9763 28.5008 30.6306 28.5002 30.2817V6.37515C28.501 6.02608 28.4368 5.6803 28.3114 5.35765C28.186 5.03501 28.0019 4.74185 27.7696 4.49502C27.5373 4.2482 27.2614 4.05256 26.9577 3.91934C26.6541 3.78613 26.3286 3.71796 26.0001 3.71876H5.99996C5.67142 3.71796 5.34598 3.78613 5.04231 3.91934C4.73865 4.05256 4.46274 4.2482 4.23043 4.49502C3.99812 4.74185 3.81399 5.03501 3.68861 5.35765C3.56323 5.6803 3.49908 6.02608 3.49982 6.37515V30.2817C3.4992 30.6306 3.56345 30.9763 3.68888 31.2989C3.81432 31.6214 3.99847 31.9144 4.23076 32.1611C4.46306 32.4079 4.73893 32.6034 5.04253 32.7366C5.34614 32.8697 5.6715 32.9378 5.99996 32.9371Z" fill="#00A1FF"/>
<path d="M6.12463 3.71875V27.7708C6.12463 28.9334 7.0062 29.869 8.09942 29.869H23.8996C24.9937 29.869 25.8744 28.9334 25.8744 27.7708V3.71875H6.12463Z" fill="#A8D0FF"/>
<path d="M13.8745 1.0625C13.7102 1.06211 13.5475 1.09619 13.3957 1.1628C13.2438 1.2294 13.1059 1.32722 12.9897 1.45064C12.8736 1.57405 12.7815 1.72063 12.7188 1.88195C12.6561 2.04327 12.6241 2.21617 12.6244 2.3907H11.5936C11.4293 2.3903 11.2666 2.42439 11.1148 2.49099C10.9629 2.5576 10.825 2.65542 10.7088 2.77883C10.5927 2.90225 10.5006 3.04882 10.4379 3.21015C10.3752 3.37147 10.3431 3.54436 10.3435 3.71889V4.51601C10.3435 5.25189 10.901 5.84421 11.5936 5.84421H20.4055C20.5697 5.84461 20.7324 5.81052 20.8843 5.74391C21.0361 5.67731 21.1741 5.57949 21.2902 5.45607C21.4064 5.33266 21.4984 5.18608 21.5611 5.02476C21.6238 4.86344 21.6559 4.69055 21.6555 4.51601V3.71889C21.6559 3.54436 21.6238 3.37147 21.5611 3.21015C21.4984 3.04882 21.4064 2.90225 21.2902 2.77883C21.1741 2.65542 21.0361 2.5576 20.8843 2.49099C20.7324 2.42439 20.5697 2.3903 20.4055 2.3907H19.3746C19.375 2.21617 19.3429 2.04327 19.2802 1.88195C19.2175 1.72063 19.1255 1.57405 19.0093 1.45064C18.8931 1.32722 18.7552 1.2294 18.6034 1.1628C18.4515 1.09619 18.2888 1.06211 18.1245 1.0625H13.8745Z" fill="#0066FF"/>
<path d="M9.86543 25.4694C10.0324 25.4742 10.1986 25.4435 10.3543 25.379C10.5099 25.3145 10.6518 25.2174 10.7715 25.0937C10.8912 24.9699 10.9864 24.8219 11.0514 24.6584C11.1164 24.4949 11.1499 24.3192 11.1499 24.1417C11.1499 23.9642 11.1164 23.7885 11.0514 23.625C10.9864 23.4615 10.8912 23.3134 10.7715 23.1897C10.6518 23.0659 10.5099 22.9689 10.3543 22.9044C10.1986 22.8398 10.0324 22.8091 9.86543 22.814H9.53095C9.20548 22.8235 8.89635 22.9675 8.66932 23.2155C8.44228 23.4634 8.31525 23.7957 8.31525 24.1417C8.31525 24.4876 8.44228 24.8199 8.66932 25.0678C8.89635 25.3158 9.20548 25.4599 9.53095 25.4694H9.86543ZM22.4672 25.4694C22.6342 25.4742 22.8004 25.4435 22.956 25.379C23.1117 25.3145 23.2535 25.2174 23.3733 25.0937C23.493 24.9699 23.5882 24.8219 23.6532 24.6584C23.7181 24.4949 23.7516 24.3192 23.7516 24.1417C23.7516 23.9642 23.7181 23.7885 23.6532 23.625C23.5882 23.4615 23.493 23.3134 23.3733 23.1897C23.2535 23.0659 23.1117 22.9689 22.956 22.9044C22.8004 22.8398 22.6342 22.8091 22.4672 22.814H13.7271C13.4017 22.8235 13.0925 22.9675 12.8655 23.2155C12.6385 23.4634 12.5114 23.7957 12.5114 24.1417C12.5114 24.4876 12.6385 24.8199 12.8655 25.0678C13.0925 25.3158 13.4017 25.4599 13.7271 25.4694H22.4672Z" fill="white"/>
<g clip-path="url(#clip0_21_228)">
<path d="M20.1875 11.2437V12.9453C20.1872 13.216 20.0686 13.4755 19.8577 13.667C19.6467 13.8584 19.3608 13.966 19.0625 13.9663H18.5C18.4573 13.9662 18.416 13.9528 18.3828 13.9284C18.3527 13.9064 18.3309 13.8764 18.3203 13.8426C18.3098 13.8088 18.311 13.7728 18.3238 13.7397C18.3367 13.7066 18.3605 13.6778 18.392 13.6575C18.4236 13.6371 18.4613 13.6261 18.5 13.626H19.0625C19.2614 13.626 19.4522 13.5543 19.5928 13.4266C19.7335 13.299 19.8125 13.1258 19.8125 12.9453V11.2437C19.8125 11.0631 19.7335 10.89 19.5928 10.7624C19.4522 10.6347 19.2614 10.563 19.0625 10.563H13.4375C13.2386 10.563 13.0478 10.6347 12.9072 10.7624C12.7665 10.89 12.6875 11.0631 12.6875 11.2437V12.9453C12.6875 13.1258 12.7665 13.299 12.9072 13.4266C13.0478 13.5543 13.2386 13.626 13.4375 13.626H14C14.0386 13.626 14.0763 13.6368 14.1078 13.657C14.1394 13.6771 14.1634 13.7056 14.1764 13.7386C14.1895 13.7716 14.191 13.8074 14.1808 13.8412C14.1705 13.875 14.1491 13.9051 14.1193 13.9274L14.117 13.9291L14.1125 13.9321C14.1083 13.9348 14.1041 13.9376 14.0996 13.9401L14.0893 13.9457L14.0858 13.9474C14.077 13.9516 14.0678 13.9551 14.0584 13.9578C14.0442 13.9621 14.0296 13.9647 14.0148 13.9657C14.0099 13.9657 14.005 13.9657 14 13.9657H13.4375C13.1392 13.9654 12.8533 13.8577 12.6423 13.6663C12.4314 13.4749 12.3128 13.2154 12.3125 12.9447V11.2437C12.3128 10.973 12.4314 10.7134 12.6423 10.522C12.8533 10.3306 13.1392 10.2229 13.4375 10.2227H19.0625C19.3608 10.2229 19.6467 10.3306 19.8577 10.522C20.0686 10.7134 20.1872 10.973 20.1875 11.2437Z" fill="#0D77BD"/>
<path d="M20.9375 10.9884V13.2006C20.9375 13.5842 20.7696 13.9521 20.4707 14.2233C20.1718 14.4946 19.7664 14.647 19.3438 14.647H19.25C19.2208 14.647 19.1921 14.6408 19.166 14.629C19.1399 14.6171 19.1172 14.5999 19.0998 14.5787L19.0981 14.5768C19.0967 14.5749 19.0951 14.5732 19.0939 14.5712C19.0751 14.5456 19.0642 14.5158 19.0626 14.485C19.061 14.4543 19.0686 14.4237 19.0846 14.3965C19.1006 14.3693 19.1245 14.3466 19.1536 14.3308C19.1827 14.315 19.216 14.3066 19.25 14.3066H19.3438C19.6669 14.3063 19.9766 14.1897 20.2051 13.9823C20.4336 13.7749 20.5621 13.4938 20.5625 13.2006V10.9884C20.5621 10.6952 20.4336 10.414 20.2051 10.2067C19.9766 9.9993 19.6669 9.88266 19.3438 9.88232H13.1562C12.8331 9.88266 12.5234 9.9993 12.2949 10.2067C12.0664 10.414 11.9379 10.6952 11.9375 10.9884V13.2006C11.9379 13.4938 12.0664 13.7749 12.2949 13.9823C12.5234 14.1897 12.8331 14.3063 13.1562 14.3066H13.261H13.2676L13.2793 14.3079C13.2837 14.3085 13.2881 14.3093 13.2924 14.3103H13.2966C13.3005 14.3111 13.3044 14.3122 13.3081 14.3134C13.3162 14.3158 13.324 14.3188 13.3316 14.3224C13.3339 14.3232 13.3362 14.3243 13.3384 14.3256C13.3465 14.3295 13.3544 14.334 13.3618 14.339C13.3678 14.3432 13.3736 14.3476 13.3791 14.3524L13.3871 14.3596C13.4117 14.3837 13.428 14.4138 13.434 14.4462C13.4347 14.449 13.4352 14.452 13.4354 14.4549C13.4364 14.465 13.4364 14.4752 13.4354 14.4853C13.4354 14.4872 13.4354 14.4889 13.4354 14.4908C13.4353 14.4914 13.4353 14.492 13.4354 14.4925L13.434 14.5017C13.4333 14.5061 13.4324 14.5105 13.4312 14.5149C13.43 14.5193 13.4286 14.5236 13.427 14.5281C13.4253 14.5325 13.4237 14.5366 13.4218 14.5408C13.4199 14.5449 13.4178 14.5487 13.4155 14.5527C13.4096 14.5634 13.4023 14.5735 13.3939 14.5827C13.3766 14.6024 13.3548 14.6184 13.3299 14.6295C13.305 14.6406 13.2777 14.6466 13.25 14.647H13.1562C12.7336 14.647 12.3282 14.4946 12.0293 14.2233C11.7304 13.9521 11.5625 13.5842 11.5625 13.2006V10.9884C11.5629 10.6049 11.731 10.2372 12.0298 9.96607C12.3286 9.6949 12.7337 9.54239 13.1562 9.54199H19.3438C19.7663 9.54239 20.1714 9.6949 20.4702 9.96607C20.769 10.2372 20.9371 10.6049 20.9375 10.9884ZM17.9375 17.8801C17.9375 17.9253 17.9177 17.9685 17.8826 18.0005C17.8474 18.0324 17.7997 18.0503 17.75 18.0503H12.6282C12.5915 18.0503 12.5557 18.0405 12.5251 18.0222C12.4945 18.0039 12.4704 17.9779 12.4559 17.9473C12.4534 17.9407 12.4508 17.9344 12.4484 17.9278C12.4405 17.9024 12.4391 17.8758 12.4444 17.8499C12.4497 17.824 12.4615 17.7996 12.479 17.7785C12.4965 17.7575 12.5191 17.7404 12.545 17.7287C12.571 17.7169 12.5996 17.7108 12.6287 17.7108H17.75C17.7996 17.7108 17.8471 17.7286 17.8823 17.7604C17.9174 17.7921 17.9373 17.8351 17.9375 17.8801ZM20.0593 17.8801C20.0593 17.896 20.0568 17.9117 20.052 17.9269C20.0497 17.9335 20.0471 17.9399 20.0445 17.9465C20.0301 17.9771 20.006 18.0031 19.9754 18.0214C19.9448 18.0397 19.9089 18.0494 19.8723 18.0494H18.5C18.4503 18.0494 18.4026 18.0315 18.3674 17.9996C18.3323 17.9677 18.3125 17.9244 18.3125 17.8793C18.3125 17.8341 18.3323 17.7909 18.3674 17.759C18.4026 17.727 18.4503 17.7091 18.5 17.7091H19.8718C19.8965 17.7091 19.921 17.7135 19.9438 17.7221C19.9666 17.7307 19.9873 17.7434 20.0047 17.7593C20.0221 17.7751 20.0359 17.794 20.0453 17.8147C20.0547 17.8355 20.0594 17.8577 20.0593 17.8801Z" fill="#0D77BD"/>
<path d="M20.1875 16.5184V17.1991C20.1878 17.4468 20.142 17.6927 20.052 17.9265C20.0497 17.9331 20.0471 17.9395 20.0445 17.9461C19.8745 18.3748 19.563 18.7455 19.1524 19.0077C18.7417 19.2699 18.2521 19.4108 17.75 19.4112H14.75C14.2482 19.4108 13.7587 19.2699 13.3482 19.0079C12.9377 18.7459 12.6261 18.3754 12.456 17.947C12.4534 17.9404 12.4508 17.934 12.4485 17.9274C12.3582 17.6933 12.3122 17.4471 12.3125 17.1991V16.5184C12.3103 15.8503 12.5164 15.1952 12.9071 14.6289C12.9668 14.5422 13.031 14.4571 13.0998 14.3737C13.1173 14.3526 13.1401 14.3356 13.1661 14.3239C13.1922 14.3122 13.2209 14.3062 13.25 14.3063H13.2613H13.2678L13.2795 14.3075C13.284 14.3081 13.2883 14.3089 13.2927 14.3099H13.2969C13.3008 14.3107 13.3046 14.3118 13.3084 14.3131C13.3164 14.3154 13.3243 14.3184 13.3318 14.322C13.3342 14.3228 13.3365 14.3239 13.3386 14.3252C13.3468 14.3291 13.3546 14.3336 13.362 14.3386C13.3681 14.3428 13.3739 14.3472 13.3794 14.352L13.3874 14.3592C13.4119 14.3833 13.4282 14.4134 13.4342 14.4458C13.4349 14.4487 13.4354 14.4516 13.4356 14.4545C13.4367 14.4646 13.4367 14.4748 13.4356 14.4849C13.4356 14.4868 13.4356 14.4885 13.4356 14.4905C13.4355 14.491 13.4355 14.4916 13.4356 14.4922L13.4342 14.5013C13.4335 14.5057 13.4326 14.5101 13.4314 14.5145C13.4303 14.519 13.4288 14.5232 13.4272 14.5277C13.4256 14.5322 13.4239 14.5362 13.422 14.5404C13.4202 14.5445 13.4181 14.5483 13.4157 14.5524C13.4109 14.5607 13.4053 14.5687 13.3991 14.5762L13.3942 14.5824C12.9327 15.1407 12.6845 15.8205 12.6875 16.5184V17.1991C12.6875 17.6955 12.9048 18.1716 13.2916 18.5227C13.6784 18.8737 14.203 19.0709 14.75 19.0709H17.75C18.0209 19.0711 18.2892 19.0228 18.5396 18.9288C18.7899 18.8348 19.0173 18.697 19.2089 18.5231C19.4005 18.3492 19.5524 18.1428 19.656 17.9156C19.7595 17.6884 19.8127 17.4449 19.8125 17.1991V16.5184C19.8148 15.8185 19.5645 15.1371 19.1 14.5783L19.0984 14.5764C19.097 14.5745 19.0953 14.5728 19.0942 14.5709C19.065 14.5342 19.0532 14.4885 19.0611 14.4439C19.0691 14.3993 19.0963 14.3594 19.1367 14.333C19.1771 14.3065 19.2274 14.2957 19.2766 14.303C19.3257 14.3102 19.3697 14.3349 19.3988 14.3716C19.4682 14.4552 19.5331 14.541 19.5936 14.6289C19.9841 15.1953 20.19 15.8503 20.1875 16.5184Z" fill="#0D77BD"/>
<path d="M19.3438 9.88184H13.1562C12.8331 9.88217 12.5234 9.99882 12.2949 10.2062C12.0664 10.4135 11.9379 10.6947 11.9375 10.9879V13.2001C11.9379 13.4933 12.0664 13.7745 12.2949 13.9818C12.5234 14.1892 12.8331 14.3058 13.1562 14.3062H13.261H13.2676L13.2793 14.3074L13.2924 14.3098H13.2966C13.3006 14.3108 13.3044 14.3117 13.3081 14.313C13.3162 14.3153 13.324 14.3183 13.3316 14.3219C13.3339 14.3228 13.3362 14.3239 13.3384 14.3251C13.3465 14.329 13.3544 14.3335 13.3618 14.3385C13.3678 14.3427 13.3736 14.3471 13.3791 14.3519L13.3871 14.3591C13.4117 14.3832 13.428 14.4133 13.434 14.4457C13.4347 14.4486 13.4352 14.4515 13.4354 14.4544C13.4364 14.4645 13.4364 14.4747 13.4354 14.4848C13.4354 14.4865 13.4354 14.4884 13.4354 14.4904C13.4353 14.4909 13.4353 14.4915 13.4354 14.4921C13.4354 14.495 13.4354 14.4982 13.434 14.5012C13.4333 14.5056 13.4324 14.51 13.4312 14.5144C13.43 14.5189 13.4286 14.5233 13.427 14.5276C13.4255 14.5319 13.4238 14.5362 13.4218 14.5403C13.4199 14.5444 13.4178 14.5484 13.4155 14.5523C13.4096 14.563 13.4023 14.573 13.3939 14.5822C12.9325 15.1406 12.6845 15.8204 12.6875 16.5183V17.199C12.6874 17.3716 12.7136 17.5434 12.7653 17.7095H17.75C17.7997 17.7095 17.8474 17.7274 17.8826 17.7593C17.9177 17.7912 17.9375 17.8345 17.9375 17.8796C17.9375 17.9248 17.9177 17.9681 17.8826 18C17.8474 18.0319 17.7997 18.0498 17.75 18.0498H12.9132C13.0862 18.3569 13.3492 18.6148 13.6733 18.7949C13.9974 18.9751 14.37 19.0705 14.75 19.0708H17.75C18.13 19.0705 18.5026 18.9751 18.8267 18.7949C19.1508 18.6148 19.4138 18.3569 19.5868 18.0498H18.5C18.4503 18.0498 18.4026 18.0319 18.3674 18C18.3323 17.9681 18.3125 17.9248 18.3125 17.8796C18.3125 17.8345 18.3323 17.7912 18.3674 17.7593C18.4026 17.7274 18.4503 17.7095 18.5 17.7095H19.7347C19.7864 17.5434 19.8126 17.3716 19.8125 17.199V16.5183C19.8148 15.8184 19.5645 15.137 19.1 14.5782L19.0984 14.5763C19.097 14.5744 19.0953 14.5727 19.0941 14.5708C19.0731 14.5432 19.0615 14.5106 19.0608 14.4771C19.0601 14.4436 19.0703 14.4107 19.0902 14.3824C19.11 14.3541 19.1386 14.3318 19.1724 14.3183C19.2062 14.3047 19.2436 14.3005 19.28 14.3062H19.3438C19.6669 14.3058 19.9766 14.1892 20.2051 13.9818C20.4336 13.7745 20.5621 13.4933 20.5625 13.2001V10.9879C20.5621 10.6947 20.4336 10.4135 20.2051 10.2062C19.9766 9.99882 19.6669 9.88217 19.3438 9.88184ZM20.1875 12.9448C20.1872 13.2155 20.0686 13.4751 19.8577 13.6665C19.6467 13.8579 19.3608 13.9655 19.0625 13.9658H18.5C18.4573 13.9657 18.416 13.9523 18.3828 13.928C17.7673 13.5113 17.0199 13.2862 16.252 13.2862C15.4841 13.2862 14.7367 13.5113 14.1212 13.928L14.1188 13.9297C14.1134 13.9338 14.1076 13.9375 14.1015 13.9407C14.0982 13.9428 14.0947 13.9446 14.0912 13.9463L14.0877 13.948C14.0789 13.9522 14.0697 13.9557 14.0602 13.9584C14.0461 13.9626 14.0315 13.9653 14.0166 13.9662C14.0118 13.9662 14.0069 13.9662 14.0019 13.9662H13.4375C13.1392 13.966 12.8533 13.8583 12.6423 13.6669C12.4314 13.4755 12.3128 13.2159 12.3125 12.9452V11.2432C12.3128 10.9725 12.4314 10.7129 12.6423 10.5215C12.8533 10.3301 13.1392 10.2224 13.4375 10.2222H19.0625C19.3608 10.2224 19.6467 10.3301 19.8577 10.5215C20.0686 10.7129 20.1872 10.9725 20.1875 11.2432V12.9448Z" fill="#94D4F0"/>
<path d="M18.6439 13.893C18.6142 13.9289 18.5702 13.9526 18.5213 13.9592C18.4724 13.9657 18.4226 13.9545 18.3828 13.9279C17.7673 13.5112 17.0199 13.2861 16.252 13.2861C15.4841 13.2861 14.7367 13.5112 14.1212 13.9279L14.1188 13.9296L14.1144 13.9326C14.1102 13.9353 14.1059 13.9381 14.1015 13.9406L14.0912 13.9462L14.0877 13.9479C14.0788 13.9518 14.0696 13.9553 14.0602 13.9583C14.0461 13.9624 14.0314 13.965 14.0166 13.9662H14.0019C13.9626 13.9661 13.9242 13.9549 13.8924 13.9341C13.8605 13.9132 13.8366 13.8838 13.8241 13.8499C13.8117 13.8161 13.8112 13.7796 13.8229 13.7455C13.8346 13.7114 13.8577 13.6815 13.8891 13.6601C13.906 13.6486 13.9231 13.6371 13.9402 13.626C14.6124 13.1836 15.4216 12.9453 16.252 12.9453C17.0824 12.9453 17.8915 13.1836 18.5638 13.626C18.5785 13.6356 18.5933 13.6454 18.6078 13.6554C18.6472 13.6827 18.6731 13.7229 18.6798 13.7674C18.6866 13.812 18.6737 13.8571 18.6439 13.893Z" fill="#0D77BD"/>
</g>
<defs>
<clipPath id="clip0_21_228">
<rect width="12" height="10.8906" fill="white" transform="translate(10.25 9.03125)"/>
</clipPath>
</defs>
</svg>
